<svg xmlns="http://www.w3.org/2000/svg" width="120" height="48"><path fill="#FFF" d="M2 9.6V24h7v-7h6v7h7V9.6L12 .7zM77 20h14v2H77z"/><path fill="#D44457" d="M77 44h14v2H77z"/><path fill="#FFF" d="M72 2v16h24V2H72zm9 13V5l6.7 5-6.7 5z"/><g fill="#FFF"><path d="M46 8h-6c-1.1 0-2 .9-2 2v12c0 1.1.9 2 2 2h6c1.1 0 2-.9 2-2V10c0-1.1-.9-2-2-2zm0 12h-6V10h6v10z"/><path d="M36 15h-6V3h14v3h2c.3 0 .7.1 1 .1V2c0-1.1-.9-2-2-2H26c-1.1 0-2 .9-2 2v14c0 1.1.9 2 2 2h10v-3zm-8-4h-2V7h2v4z"/></g><g fill="#FFF"><path d="M96 1v22h24V1H96zm22 2v9.9l-5.1-4.3-6 7-4.9-3.9-4 3.2V3h20z"/><circle cx="106" cy="8" r="3"/></g><path fill="#D44457" d="M2 33.6V48h7v-7h6v7h7V33.6l-10-8.9zM72 26v16h24V26H72zm9 13V29l6.7 5-6.7 5z"/><g fill="#D44457"><path d="M46 32h-6c-1.1 0-2 .9-2 2v12c0 1.1.9 2 2 2h6c1.1 0 2-.9 2-2V34c0-1.1-.9-2-2-2zm0 12h-6V34h6v10z"/><path d="M36 39h-6V27h14v3h2c.3 0 .7.1 1 .1V26c0-1.1-.9-2-2-2H26c-1.1 0-2 .9-2 2v14c0 1.1.9 2 2 2h10v-3zm-8-4h-2v-4h2v4z"/></g><g fill="#D44457"><path d="M96 25v22h24V25H96zm22 2v9.9l-5.1-4.3-6 7-4.9-3.9-4 3.2V27h20z"/><circle cx="106" cy="32" r="3"/></g><path fill="#FFF" d="M72 19V1H48v18h9v2h-4v2h14v-2h-4v-2h9zm-21-3V4h18v12H51z"/><path fill="#D44457" d="M72 43V25H48v18h9v2h-4v2h14v-2h-4v-2h9zm-21-3V28h18v12H51z"/></svg>